HIERARCHY
ROOT Root
{
	OFFSET 0.00000 0.00000 0.00000
	CHANNELS 6 Xposition Yposition Zposition Zrotation Xrotation Yrotation
	JOINT Hips
	{
		OFFSET 0 0 0	
		CHANNELS 3 Zrotation Xrotation Yrotation
		JOINT Spine
		{
			OFFSET 0 4 0	
			CHANNELS 3 Zrotation Xrotation Yrotation
			JOINT Spine1
			{
				OFFSET 0 19.4 0	
				CHANNELS 3 Zrotation Xrotation Yrotation
				JOINT Spine2
				{
					OFFSET 0 16.6 0	
					CHANNELS 3 Zrotation Xrotation Yrotation
					JOINT LeftCollar
					{
						OFFSET 0 10 0	
						CHANNELS 3 Zrotation Xrotation Yrotation
						JOINT LeftArm
						{
							OFFSET 15.6 -2 3	
							CHANNELS 3 Zrotation Xrotation Yrotation
							JOINT LeftForeArm
							{
								OFFSET 3.5 -27 -1	
								CHANNELS 3 Zrotation Xrotation Yrotation
								JOINT LeftHand
								{
									OFFSET 1 -27 1	
									CHANNELS 3 Zrotation Xrotation Yrotation
									End Site
									{
										OFFSET 0 -15 0
									}
								}
							}
						}
					}
					JOINT RightCollar
					{
						OFFSET 0 10 0	
						CHANNELS 3 Zrotation Xrotation Yrotation
						JOINT RightArm
						{
							OFFSET -15.6 -2 3	
							CHANNELS 3 Zrotation Xrotation Yrotation
							JOINT RightForeArm
							{
								OFFSET -3.5 -27 -1	
								CHANNELS 3 Zrotation Xrotation Yrotation
								JOINT RightHand
								{
									OFFSET -1 -27 1	
									CHANNELS 3 Zrotation Xrotation Yrotation
									End Site
									{
										OFFSET 0 -15 0
									}
								}
							}
						}
					}
					JOINT Neck
					{
						OFFSET 0 10 0	
						CHANNELS 3 Zrotation Xrotation Yrotation
						JOINT Head
						{
							OFFSET 0 12.7 3	
							CHANNELS 3 Zrotation Xrotation Yrotation
							End Site
							{
								OFFSET 0 12.7 3
							}
						}
					}
				}
			}
		}
	}
	JOINT LeftHip
	{
		OFFSET 0 0 0	
		CHANNELS 3 Zrotation Xrotation Yrotation
		JOINT LeftUpLeg
		{
			OFFSET 8.8 -6 0	
			CHANNELS 3 Zrotation Xrotation Yrotation
			JOINT LeftLeg
			{
				OFFSET 0 -39 2	
				CHANNELS 3 Zrotation Xrotation Yrotation
				JOINT LeftFoot
				{
					OFFSET 0 -43 -2	
					CHANNELS 3 Zrotation Xrotation Yrotation
					JOINT LeftFootFront
					{
						OFFSET 0 -7 8.5	
						CHANNELS 3 Zrotation Xrotation Yrotation
						End Site
						{
							OFFSET 0 -0.5 9
						}
					}
				}
				JOINT LeftHeel
				{
					OFFSET 0 -43 -2	
					CHANNELS 3 Zrotation Xrotation Yrotation
					End Site
					{
						OFFSET 0 -7.5 -5
					}
				}
			}
		}
	}
	JOINT RightHip
	{
		OFFSET 0 0 0	
		CHANNELS 3 Zrotation Xrotation Yrotation
		JOINT RightUpLeg
		{
			OFFSET -8.8 -6 0	
			CHANNELS 3 Zrotation Xrotation Yrotation
			JOINT RightLeg
			{
				OFFSET 0 -39 2	
				CHANNELS 3 Zrotation Xrotation Yrotation
				JOINT RightFoot
				{
					OFFSET 0 -43 -2	
					CHANNELS 3 Zrotation Xrotation Yrotation
					JOINT RightFootFront
					{
						OFFSET 0 -7 8.5	
						CHANNELS 3 Zrotation Xrotation Yrotation
						End Site
						{
							OFFSET 0 -0.5 9
						}
					}
				}
				JOINT RightHeel
				{
					OFFSET 0 -43 -2	
					CHANNELS 3 Zrotation Xrotation Yrotation
					End Site
					{
						OFFSET 0 -7.5 -5
					}
				}
			}
		}
	}
}
MOTION
Frames: 19
Frame Time: 0.025
0 96.624 0 -0 0 -0 0.28472 -8.2338 -5.7722 -0.016236 -8.8232 0.99468 -0.016236 -8.8232 0.99468 -0.024002 -7.4115 0.83454 -0 0 -0 -1.2975 10.563 7.3791 14.264 -0.77431 13.693 -0 0 -0 -0 0 -0 0.26504 11.443 -16.797 6.8246 0.92786 4.6581 -0 0 -0 1.263 -1.706 -0.95844 1.263 -1.706 -0.95844 0.28472 -8.2338 -5.7722 -2.6376 9.1098 4.1222 -0.92721 3.7034 -1.2187 -0 0 -0 -0 0 -0 -0 0 -0 0.28472 -8.2338 -5.7722 0.13235 9.0906 -7.9377 0.27423 3.2175 2.1343 -0 0 -0 -0 0 -0 -0 0 -0 
0 96.624 0 -0 0 -0 0.29078 -8.2297 -5.7658 -0.022174 -8.826 0.99328 -0.022174 -8.826 0.99328 -0.028972 -7.4138 0.83343 -0 0 -0 -1.2807 10.571 7.4064 14.291 -0.78101 13.606 -0 0 -0 -0 0 -0 0.26778 11.446 -16.773 6.8179 0.91539 4.63 -0 0 -0 1.2606 -1.7372 -0.95271 1.2606 -1.7372 -0.95271 0.29078 -8.2297 -5.7658 -2.6376 9.0985 4.1215 -0.93479 3.7113 -1.2219 -0 0 -0 -0 0 -0 -0 0 -0 0.29078 -8.2297 -5.7658 0.12529 9.0918 -7.9466 0.27518 3.2135 2.1369 -0 0 -0 -0 0 -0 -0 0 -0 
0 96.624 0 -0 0 -0 0.29852 -8.2236 -5.7523 -0.030462 -8.8234 0.99064 -0.030463 -8.8234 0.99064 -0.035894 -7.4116 0.8313 -0 0 -0 -1.2585 10.564 7.4421 14.32 -0.78539 13.507 -0 0 -0 -0 0 -0 0.26719 11.44 -16.745 6.8189 0.89459 4.6025 -0 0 -0 1.2568 -1.7897 -0.94578 1.2568 -1.7897 -0.94578 0.29852 -8.2236 -5.7523 -2.6362 9.0826 4.116 -0.94523 3.7223 -1.2264 -0 0 -0 -0 0 -0 -0 0 -0 0.29852 -8.2236 -5.7523 0.11703 9.0931 -7.9636 0.2764 3.2082 2.1405 -0 0 -0 -0 0 -0 -0 0 -0 
0 96.624 0 -0 0 -0 0.30442 -8.2161 -5.7315 -0.039167 -8.8124 0.98581 -0.039167 -8.8124 0.98581 -0.043133 -7.4024 0.82735 -0 0 -0 -1.2361 10.533 7.4779 14.344 -0.79361 13.44 -0 0 -0 -0 0 -0 0.26918 11.421 -16.724 6.8302 0.86946 4.596 -0 0 -0 1.2531 -1.8556 -0.9391 1.2531 -1.8556 -0.9391 0.30442 -8.2161 -5.7315 -2.6313 9.0653 4.1031 -0.95601 3.7335 -1.2311 -0 0 -0 -0 0 -0 -0 0 -0 0.30442 -8.2161 -5.7315 0.11236 9.0931 -7.9886 0.27702 3.2034 2.1446 -0 0 -0 -0 0 -0 -0 0 -0 
0 96.624 0 -0 0 -0 0.3092 -8.2056 -5.7072 -0.048391 -8.7972 0.9794 -0.048391 -8.7971 0.9794 -0.050786 -7.3896 0.82207 -0 0 -0 -1.2139 10.487 7.514 14.397 -0.83867 13.363 -0 0 -0 -0 0 -0 0.28217 11.39 -16.705 6.8425 0.84706 4.6095 -0 0 -0 1.2531 -1.9254 -0.93132 1.2531 -1.9254 -0.93132 0.3092 -8.2056 -5.7072 -2.6244 9.0452 4.0852 -0.96682 3.744 -1.2347 -0 0 -0 -0 0 -0 -0 0 -0 0.3092 -8.2056 -5.7072 0.11148 9.0901 -8.018 0.27611 3.1999 2.1501 -0 0 -0 -0 0 -0 -0 0 -0 
0 96.624 0 -0 0 -0 0.31529 -8.1923 -5.684 -0.058125 -8.7823 0.97467 -0.058125 -8.7823 0.97467 -0.058884 -7.3771 0.8182 -0 0 -0 -1.1958 10.443 7.546 14.491 -0.92368 13.251 -0 0 -0 -0 0 -0 0.30928 11.358 -16.688 6.8421 0.83216 4.6205 -0 0 -0 1.261 -1.986 -0.92128 1.261 -1.986 -0.92128 0.31529 -8.1923 -5.684 -2.62 9.0228 4.0649 -0.97634 3.7524 -1.234 -0 0 -0 -0 0 -0 -0 0 -0 0.31529 -8.1923 -5.684 0.11247 9.0849 -8.0474 0.27354 3.1958 2.158 -0 0 -0 -0 0 -0 -0 0 -0 
0 96.624 0 -0 0 -0 0.3232 -8.176 -5.6657 -0.066576 -8.7758 0.97207 -0.066576 -8.7758 0.97207 -0.065939 -7.3716 0.81611 -0 0 -0 -1.1914 10.424 7.5727 14.572 -0.98072 13.205 -0 0 -0 -0 0 -0 0.3405 11.341 -16.671 6.8253 0.83037 4.6121 -0 0 -0 1.2764 -2.0187 -0.9051 1.2764 -2.0187 -0.9051 0.3232 -8.176 -5.6657 -2.6214 8.9999 4.0468 -0.98157 3.7562 -1.2286 -0 0 -0 -0 0 -0 -0 0 -0 0.3232 -8.176 -5.6657 0.11374 9.0789 -8.0721 0.27018 3.1883 2.1655 -0 0 -0 -0 0 -0 -0 0 -0 
0 96.624 0 -0 0 -0 0.3323 -8.1562 -5.6551 -0.072963 -8.7836 0.97163 -0.072963 -8.7836 0.97163 -0.071301 -7.3781 0.81581 -0 0 -0 -1.2005 10.445 7.589 14.603 -0.98586 13.245 -0 0 -0 -0 0 -0 0.36133 11.352 -16.661 6.8045 0.85043 4.6011 -0 0 -0 1.2952 -2.0122 -0.88337 1.2952 -2.0122 -0.88337 0.3323 -8.1562 -5.6551 -2.628 8.9759 4.0403 -0.98223 3.7544 -1.2254 -0 0 -0 -0 0 -0 -0 0 -0 0.3323 -8.1562 -5.6551 0.11361 9.0702 -8.0856 0.26703 3.1803 2.1685 -0 0 -0 -0 0 -0 -0 0 -0 
0 96.624 0 -0 0 -0 0.34055 -8.1342 -5.6518 -0.078515 -8.8039 0.97495 -0.078515 -8.8039 0.97495 -0.076016 -7.3952 0.81864 -0 0 -0 -1.2072 10.495 7.5867 14.594 -0.96485 13.31 -0 0 -0 -0 0 -0 0.3696 11.385 -16.673 6.7939 0.88948 4.6161 -0 0 -0 1.312 -1.9742 -0.86392 1.312 -1.9742 -0.86392 0.34055 -8.1342 -5.6518 -2.6356 8.9522 4.0442 -0.98244 3.7484 -1.2263 -0 0 -0 -0 0 -0 -0 0 -0 0.34055 -8.1342 -5.6518 0.11312 9.0598 -8.0883 0.26357 3.1739 2.1702 -0 0 -0 -0 0 -0 -0 0 -0 
0 96.624 0 -0 0 -0 0.34623 -8.1134 -5.6498 -0.084416 -8.8261 0.97788 -0.084416 -8.8261 0.97788 -0.081022 -7.4139 0.82116 -0 0 -0 -1.1992 10.546 7.5881 14.563 -0.94447 13.361 -0 0 -0 -0 0 -0 0.37103 11.421 -16.7 6.8002 0.92964 4.6573 -0 0 -0 1.3243 -1.9266 -0.84758 1.3243 -1.9266 -0.84758 0.34623 -8.1134 -5.6498 -2.6392 8.9305 4.048 -0.98651 3.7418 -1.2297 -0 0 -0 -0 0 -0 -0 0 -0 0.34623 -8.1134 -5.6498 0.11544 9.0524 -8.089 0.25905 3.1664 2.1753 -0 0 -0 -0 0 -0 -0 0 -0 
0 96.624 0 -0 0 -0 0.34981 -8.0965 -5.6421 -0.091275 -8.8399 0.97241 -0.091275 -8.8399 0.97241 -0.086734 -7.4254 0.81664 -0 0 -0 -1.1762 10.572 7.6304 14.523 -0.93763 13.39 -0 0 -0 -0 0 -0 0.36975 11.44 -16.716 6.8214 0.95303 4.6984 -0 0 -0 1.3334 -1.8846 -0.82447 1.3334 -1.8846 -0.82447 0.34981 -8.0965 -5.6421 -2.6371 8.9113 4.042 -0.99409 3.7394 -1.2329 -0 0 -0 -0 0 -0 -0 0 -0 0.34981 -8.0965 -5.6421 0.12083 9.0498 -8.0961 0.25515 3.1557 2.1853 -0 0 -0 -0 0 -0 -0 0 -0 
0 96.624 0 -0 0 -0 0.35304 -8.0848 -5.628 -0.099147 -8.846 0.95789 -0.099147 -8.846 0.95789 -0.093193 -7.4306 0.80455 -0 0 -0 -1.1465 10.579 7.7174 14.483 -0.94132 13.422 -0 0 -0 -0 0 -0 0.37224 11.448 -16.709 6.8468 0.951 4.7159 -0 0 -0 1.3418 -1.8453 -0.7913 1.3418 -1.8453 -0.7913 0.35304 -8.0848 -5.628 -2.6329 8.8952 4.0265 -1.001 3.7433 -1.2344 -0 0 -0 -0 0 -0 -0 0 -0 0.35304 -8.0848 -5.628 0.12657 9.0508 -8.1122 0.25369 3.1445 2.2044 -0 0 -0 -0 0 -0 -0 0 -0 
0 96.624 0 -0 0 -0 0.35644 -8.0784 -5.6112 -0.10816 -8.8439 0.94138 -0.10816 -8.8439 0.94138 -0.10057 -7.4288 0.79079 -0 0 -0 -1.1227 10.574 7.8031 14.442 -0.94178 13.504 -0 0 -0 -0 0 -0 0.38569 11.444 -16.688 6.8626 0.92709 4.7021 -0 0 -0 1.3519 -1.8129 -0.75518 1.3519 -1.8129 -0.75518 0.35644 -8.0784 -5.6112 -2.6285 8.8831 4.0145 -1.0063 3.7513 -1.2409 -0 0 -0 -0 0 -0 -0 0 -0 0.35644 -8.0784 -5.6112 0.13254 9.055 -8.1361 0.25225 3.137 2.2364 -0 0 -0 -0 0 -0 -0 0 -0 
0 96.624 0 -0 0 -0 0.35887 -8.0759 -5.5945 -0.11854 -8.8294 0.92677 -0.11854 -8.8294 0.92676 -0.10912 -7.4166 0.77864 -0 0 -0 -1.1084 10.549 7.8446 14.4 -0.92726 13.65 -0 0 -0 -0 0 -0 0.4093 11.416 -16.653 6.8656 0.89185 4.6638 -0 0 -0 1.3635 -1.8032 -0.71964 1.3635 -1.8032 -0.71964 0.35887 -8.0759 -5.5945 -2.6229 8.8749 4.011 -1.0126 3.7609 -1.2566 -0 0 -0 -0 0 -0 -0 0 -0 0.35887 -8.0759 -5.5945 0.14126 9.0636 -8.1661 0.24864 3.1306 2.2771 -0 0 -0 -0 0 -0 -0 0 -0 
0 96.624 0 -0 0 -0 0.361 -8.0734 -5.5811 -0.12873 -8.8098 0.91318 -0.12873 -8.8098 0.91318 -0.1175 -7.4002 0.76735 -0 0 -0 -1.1085 10.518 7.8483 14.366 -0.89831 13.815 -0 0 -0 -0 0 -0 0.43047 11.38 -16.602 6.8642 0.85874 4.619 -0 0 -0 1.3728 -1.8163 -0.68452 1.3728 -1.8163 -0.68452 0.361 -8.0734 -5.5811 -2.6178 8.867 4.0079 -1.0196 3.7713 -1.2726 -0 0 -0 -0 0 -0 -0 0 -0 0.361 -8.0734 -5.5811 0.15242 9.0755 -8.1936 0.24361 3.1212 2.3203 -0 0 -0 -0 0 -0 -0 0 -0 
0 96.624 0 -0 0 -0 0.362 -8.0684 -5.5711 -0.13367 -8.7932 0.90054 -0.13367 -8.7932 0.90054 -0.12149 -7.3862 0.7568 -0 0 -0 -1.1276 10.498 7.8304 14.358 -0.87836 13.92 -0 0 -0 -0 0 -0 0.43138 11.352 -16.543 6.8664 0.83918 4.5867 -0 0 -0 1.3737 -1.8413 -0.65461 1.3737 -1.8413 -0.65461 0.362 -8.0684 -5.5711 -2.6103 8.8587 3.9963 -1.028 3.7794 -1.2785 -0 0 -0 -0 0 -0 -0 0 -0 0.362 -8.0684 -5.5711 0.16494 9.088 -8.2128 0.23856 3.109 2.3627 -0 0 -0 -0 0 -0 -0 0 -0 
0 96.624 0 -0 0 -0 0.35815 -8.0615 -5.5596 -0.1341 -8.7762 0.89194 -0.1341 -8.7762 0.89194 -0.12175 -7.3718 0.7496 -0 0 -0 -1.1382 10.468 7.7851 14.379 -0.90295 13.892 -0 0 -0 -0 0 -0 0.4224 11.322 -16.505 6.8687 0.83294 4.5763 -0 0 -0 1.3703 -1.8748 -0.64008 1.3703 -1.8748 -0.64008 0.35815 -8.0615 -5.5596 -2.5972 8.8502 3.9781 -1.0369 3.7852 -1.279 -0 0 -0 -0 0 -0 -0 0 -0 0.35815 -8.0615 -5.5596 0.17999 9.0993 -8.2273 0.23681 3.098 2.3975 -0 0 -0 -0 0 -0 -0 0 -0 
0 96.624 0 -0 0 -0 0.3515 -8.0519 -5.544 -0.13641 -8.7537 0.88831 -0.13641 -8.7537 0.88831 -0.12362 -7.353 0.74657 -0 0 -0 -1.1221 10.414 7.7268 14.416 -0.97434 13.773 -0 0 -0 -0 0 -0 0.4287 11.278 -16.502 6.8615 0.8311 4.5849 -0 0 -0 1.3723 -1.9184 -0.63964 1.3723 -1.9184 -0.63964 0.3515 -8.0519 -5.544 -2.5828 8.8409 3.9593 -1.0432 3.79 -1.2814 -0 0 -0 -0 0 -0 -0 0 -0 0.3515 -8.0519 -5.544 0.19648 9.1078 -8.2416 0.23928 3.089 2.4207 -0 0 -0 -0 0 -0 -0 0 -0 
0 96.624 0 -0 0 -0 0.34764 -8.0399 -5.5278 -0.14301 -8.7306 0.88406 -0.14301 -8.7306 0.88406 -0.1291 -7.3336 0.74308 -0 0 -0 -1.0942 10.356 7.6963 14.454 -1.0429 13.687 -0 0 -0 -0 0 -0 0.44738 11.227 -16.51 6.8466 0.83584 4.6033 -0 0 -0 1.3829 -1.9625 -0.63748 1.3829 -1.9625 -0.63748 0.34764 -8.0399 -5.5278 -2.5702 8.8303 3.9399 -1.0494 3.7943 -1.283 -0 0 -0 -0 0 -0 -0 0 -0 0.34764 -8.0399 -5.5278 0.21228 9.1149 -8.2553 0.24036 3.0804 2.4343 -0 0 -0 -0 0 -0 -0 0 -0 
